<?xml version="1.0" encoding="UTF-8" standalone="no"?>
<svg xmlns="http://www.w3.org/2000/svg" version="1.1" height="51" width="237">
  <path
     d="m 0,15.308153 v 3.456517 h 14.720486 c 0.191997,0 0.35051,0.07527 0.478509,0.224576 0.14933,0.127981 0.224605,0.286473 0.224605,0.478445 v 3.392074 H 0 v 6.846639 c 0,1.15183 0.4061242,2.134329 1.2167789,2.944876 0.8106546,0.810545 1.7913328,1.214664 2.9433158,1.214664 H 18.88058 V 19.467691 c 0,-1.151829 -0.406124,-2.132376 -1.216779,-2.942922 -0.810654,-0.810547 -1.791333,-1.216616 -2.943315,-1.216616 z m 20.392276,0 7.296768,18.557791 h 2.783162 l -0.03125,-0.03124 0.06445,0.03124 5.886632,-13.788969 6.240141,13.788969 h 2.816365 L 52.425006,15.308153 H 48.745373 L 44.040365,27.626636 38.376386,15.308153 H 34.440897 L 29.097226,27.626636 24.073864,15.308153 Z m 37.360776,0 c -1.151982,0 -2.134615,0.406069 -2.945268,1.216616 -0.810655,0.810546 -1.214826,1.791093 -1.214826,2.942922 v 10.238713 c 0,1.15183 0.404171,2.134329 1.214826,2.944876 0.810653,0.810545 1.793286,1.214664 2.945268,1.214664 H 72.471585 V 30.411377 H 57.753052 c -0.191997,0 -0.364332,-0.06535 -0.513664,-0.19333 -0.127998,-0.149311 -0.191403,-0.319671 -0.191403,-0.511643 v -3.390121 h 15.4236 v -6.848592 c 0,-1.151829 -0.404171,-2.132376 -1.214827,-2.942922 -0.810653,-0.810547 -1.793285,-1.216616 -2.945268,-1.216616 z m 22.027019,0 c -1.151983,0 -2.132662,0.406069 -2.943316,1.216616 -0.810655,0.810546 -1.216779,1.791093 -1.216779,2.942922 v 2.689054 c 0,1.151828 0.406124,2.132376 1.216779,2.942922 0.810654,0.810546 1.791333,1.216616 2.943316,1.216616 h 10.56039 c 0.191997,0 0.352465,0.07331 0.480463,0.222622 0.149331,0.127982 0.224606,0.288427 0.224606,0.480398 v 2.687101 c 0,0.191972 -0.07528,0.362332 -0.224606,0.511643 -0.127998,0.127981 -0.288466,0.19333 -0.480463,0.19333 h -10.56039 c -0.191997,0 -0.36238,-0.06535 -0.511712,-0.19333 -0.127998,-0.149311 -0.191403,-0.319671 -0.191403,-0.511643 v -0.70302 h -3.45698 v 0.70302 c 0,1.15183 0.406124,2.134329 1.216779,2.944876 0.810654,0.810545 1.791333,1.214664 2.943316,1.214664 h 10.56039 c 1.151984,0 2.132662,-0.404119 2.943316,-1.214664 0.810656,-0.810547 1.216779,-1.793046 1.216779,-2.944876 v -2.687101 c 0,-1.151829 -0.406123,-2.132375 -1.216779,-2.942921 -0.810654,-0.810547 -1.791332,-1.216617 -2.943316,-1.216617 h -10.56039 c -0.191997,0 -0.36238,-0.0634 -0.511712,-0.191378 -0.127998,-0.149311 -0.191403,-0.319671 -0.191403,-0.511642 v -2.689054 c 0,-0.191972 0.06341,-0.350464 0.191403,-0.478445 0.149332,-0.149311 0.319715,-0.224576 0.511712,-0.224576 h 10.56039 c 0.191997,0 0.352465,0.07527 0.480463,0.224576 0.149331,0.127981 0.224606,0.286473 0.224606,0.478445 v 0.704973 h 3.455026 v -0.704973 c 0,-1.151829 -0.406123,-2.132376 -1.216779,-2.942922 -0.810654,-0.810547 -1.791332,-1.216616 -2.943316,-1.216616 z m 22.034829,0 c -1.15198,0 -2.134615,0.406069 -2.945263,1.216616 -0.810657,0.810546 -1.214831,1.791093 -1.214831,2.942922 v 10.238713 c 0,1.15183 0.404174,2.134329 1.214831,2.944876 0.810648,0.810545 1.793283,1.214664 2.945263,1.214664 h 10.55844 c 1.15199,0 2.13462,-0.404119 2.94527,-1.214664 0.81066,-0.810547 1.21483,-1.793046 1.21483,-2.944876 V 19.467691 c 0,-1.151829 -0.40417,-2.132376 -1.21483,-2.942922 -0.81065,-0.810547 -1.79328,-1.216616 -2.94527,-1.216616 z m 18.06028,0 v 18.557791 h 3.45503 V 19.467691 c 0,-0.191972 0.0654,-0.350464 0.19336,-0.478445 0.14932,-0.149311 0.31971,-0.224576 0.51171,-0.224576 h 7.35926 c 0.19199,0 0.35246,0.07527 0.48046,0.224576 0.14934,0.127981 0.22266,0.286473 0.22266,0.478445 v 14.398253 h 3.45697 V 19.467691 c 0,-0.191972 0.0634,-0.350464 0.19141,-0.478445 0.14933,-0.149311 0.31972,-0.224576 0.51171,-0.224576 h 7.32802 c 0.21333,0 0.38372,0.07527 0.51171,0.224576 0.14933,0.127981 0.22461,0.286473 0.22461,0.478445 v 14.398253 h 3.42378 V 19.467691 c 0,-1.151829 -0.40417,-2.132376 -1.21483,-2.942922 -0.81065,-0.810547 -1.79328,-1.216616 -2.94527,-1.216616 z m 35.37644,0 c -1.15199,0 -2.13462,0.406069 -2.94528,1.216616 -0.81065,0.810546 -1.21482,1.791093 -1.21482,2.942922 v 10.238713 c 0,1.15183 0.40417,2.134329 1.21482,2.944876 0.81066,0.810545 1.79329,1.214664 2.94528,1.214664 h 14.71852 v -3.454567 h -14.71852 c -0.192,0 -0.36434,-0.06535 -0.51368,-0.19333 -0.12799,-0.149311 -0.19139,-0.319671 -0.19139,-0.511643 v -3.390121 h 15.42359 v -6.848592 c 0,-1.151829 -0.40417,-2.132376 -1.21483,-2.942922 -0.81065,-0.810547 -1.79328,-1.216616 -2.94526,-1.216616 z M 57.753052,18.76467 H 68.31149 c 0.191998,0 0.352464,0.07527 0.480463,0.224576 0.14933,0.127981 0.224605,0.286473 0.224605,0.478445 v 3.392074 H 57.047985 v -3.392074 c 0,-0.191972 0.06341,-0.350464 0.191403,-0.478445 0.149332,-0.149311 0.321667,-0.224576 0.513664,-0.224576 z m 44.061848,0 h 10.55844 c 0.192,0 0.35247,0.07527 0.48047,0.224576 0.14932,0.127981 0.2246,0.286473 0.2246,0.478445 v 10.238713 c 0,0.191972 -0.0753,0.362332 -0.2246,0.511643 -0.128,0.127981 -0.28847,0.19333 -0.48047,0.19333 H 101.8149 c -0.19199,0 -0.36433,-0.06535 -0.51367,-0.19333 -0.128,-0.149311 -0.1914,-0.319671 -0.1914,-0.511643 V 19.467691 c 0,-0.191972 0.0634,-0.350464 0.1914,-0.478445 0.14934,-0.149311 0.32168,-0.224576 0.51367,-0.224576 z m 53.43672,0 h 10.55843 c 0.19199,0 0.35246,0.07527 0.48046,0.224576 0.14933,0.127981 0.22461,0.286473 0.22461,0.478445 v 3.392074 h -11.96857 v -3.392074 c 0,-0.191972 0.0634,-0.350464 0.19139,-0.478445 0.14934,-0.149311 0.32168,-0.224576 0.51368,-0.224576 z M 3.455027,26.316283 H 15.4236 v 4.095094 H 4.1600947 c -0.1919972,0 -0.36238,-0.06535 -0.5117112,-0.19333 C 3.5203855,30.068736 3.455027,29.898376 3.455027,29.706404 Z"
     style="stroke-width:1" />
  <path
     d="M 187.01325,7.1249369 V 43.875052 c 1.63288,8.166706 47.35392,8.166706 48.98683,0 V 7.1249369 c -1.63291,-8.1666912 -47.35395,-8.1666912 -48.98683,0 1.63288,8.1666921 47.35392,8.1666921 48.98683,0 m -48.98683,5.7166811 c 1.63288,8.166692 47.35392,8.166692 48.98683,0 m -48.98683,5.71669 c 1.63288,8.16669 47.35392,8.16669 48.98683,0"
     style="fill:#c8e6c9;stroke:#43a047;stroke-width:2" />
</svg>
